<mxfile host="Electron" agent="Mozilla/5.0 (Windows NT 10.0; Win64; x64) AppleWebKit/537.36 (KHTML, like Gecko) draw.io/28.1.2 Chrome/138.0.7204.243 Electron/37.4.0 Safari/537.36" version="28.1.2">
  <diagram name="Page-1" id="odKDQ-LWqyShg6jIe_ZB">
    <mxGraphModel dx="1042" dy="626" grid="1" gridSize="10" guides="1" tooltips="1" connect="1" arrows="1" fold="1" page="1" pageScale="1" pageWidth="850" pageHeight="1100" math="0" shadow="0">
      <root>
        <mxCell id="0" />
        <mxCell id="1" parent="0" />
        <mxCell id="Ah1L-h3PMF6sHmN3Qi-6-1" value="Data Integration Model" style="text;align=center;verticalAlign=middle;rounded=0;fontSize=27;labelBackgroundColor=default;labelBorderColor=none;textShadow=0;whiteSpace=wrap;html=1;fontColor=#FF6666;" parent="1" vertex="1">
          <mxGeometry x="240" y="30" width="310" height="60" as="geometry" />
        </mxCell>
        <mxCell id="Ah1L-h3PMF6sHmN3Qi-6-2" value="crm_cust_info" style="swimlane;fontStyle=0;childLayout=stackLayout;horizontal=1;startSize=30;horizontalStack=0;resizeParent=1;resizeParentMax=0;resizeLast=0;collapsible=1;marginBottom=0;whiteSpace=wrap;html=1;rounded=1;fillColor=#1ba1e2;fontColor=#000000;strokeColor=#006EAF;" parent="1" vertex="1">
          <mxGeometry x="80" y="543" width="140" height="90" as="geometry" />
        </mxCell>
        <mxCell id="Ah1L-h3PMF6sHmN3Qi-6-3" value="cst_id" style="text;strokeColor=#006EAF;fillColor=none;align=left;verticalAlign=middle;spacingLeft=4;spacingRight=4;overflow=hidden;points=[[0,0.5],[1,0.5]];portConstraint=eastwest;rotatable=0;whiteSpace=wrap;html=1;fontColor=#ffffff;" parent="Ah1L-h3PMF6sHmN3Qi-6-2" vertex="1">
          <mxGeometry y="30" width="140" height="30" as="geometry" />
        </mxCell>
        <mxCell id="Ah1L-h3PMF6sHmN3Qi-6-23" value="cst_key" style="text;strokeColor=none;fillColor=none;align=left;verticalAlign=middle;spacingLeft=4;spacingRight=4;overflow=hidden;points=[[0,0.5],[1,0.5]];portConstraint=eastwest;rotatable=0;whiteSpace=wrap;html=1;" parent="Ah1L-h3PMF6sHmN3Qi-6-2" vertex="1">
          <mxGeometry y="60" width="140" height="30" as="geometry" />
        </mxCell>
        <mxCell id="Ah1L-h3PMF6sHmN3Qi-6-8" value="crm_prd_info" style="swimlane;fontStyle=0;childLayout=stackLayout;horizontal=1;startSize=30;horizontalStack=0;resizeParent=1;resizeParentMax=0;resizeLast=0;collapsible=1;marginBottom=0;whiteSpace=wrap;html=1;rounded=1;fillColor=#1ba1e2;fontColor=#000000;strokeColor=#006EAF;" parent="1" vertex="1">
          <mxGeometry x="80" y="220" width="140" height="90" as="geometry" />
        </mxCell>
        <mxCell id="Ah1L-h3PMF6sHmN3Qi-6-9" value="prd_id" style="text;strokeColor=none;fillColor=none;align=left;verticalAlign=middle;spacingLeft=4;spacingRight=4;overflow=hidden;points=[[0,0.5],[1,0.5]];portConstraint=eastwest;rotatable=0;whiteSpace=wrap;html=1;" parent="Ah1L-h3PMF6sHmN3Qi-6-8" vertex="1">
          <mxGeometry y="30" width="140" height="30" as="geometry" />
        </mxCell>
        <mxCell id="Ah1L-h3PMF6sHmN3Qi-6-32" value="prd_key" style="text;strokeColor=none;fillColor=none;align=left;verticalAlign=middle;spacingLeft=4;spacingRight=4;overflow=hidden;points=[[0,0.5],[1,0.5]];portConstraint=eastwest;rotatable=0;whiteSpace=wrap;html=1;" parent="Ah1L-h3PMF6sHmN3Qi-6-8" vertex="1">
          <mxGeometry y="60" width="140" height="30" as="geometry" />
        </mxCell>
        <mxCell id="Ah1L-h3PMF6sHmN3Qi-6-10" value="Current &amp;amp; History Product Information" style="text;html=1;align=center;verticalAlign=middle;whiteSpace=wrap;rounded=0;" parent="1" vertex="1">
          <mxGeometry x="80" y="190" width="140" height="30" as="geometry" />
        </mxCell>
        <mxCell id="Ah1L-h3PMF6sHmN3Qi-6-12" value="crm_sales_details" style="swimlane;fontStyle=0;childLayout=stackLayout;horizontal=1;startSize=30;horizontalStack=0;resizeParent=1;resizeParentMax=0;resizeLast=0;collapsible=1;marginBottom=0;whiteSpace=wrap;html=1;rounded=1;fillColor=#1ba1e2;fontColor=#000000;strokeColor=#006EAF;" parent="1" vertex="1">
          <mxGeometry x="80" y="380" width="140" height="90" as="geometry" />
        </mxCell>
        <mxCell id="Ah1L-h3PMF6sHmN3Qi-6-33" value="sls_prd_key" style="text;strokeColor=none;fillColor=none;align=left;verticalAlign=middle;spacingLeft=4;spacingRight=4;overflow=hidden;points=[[0,0.5],[1,0.5]];portConstraint=eastwest;rotatable=0;whiteSpace=wrap;html=1;rounded=1;" parent="Ah1L-h3PMF6sHmN3Qi-6-12" vertex="1">
          <mxGeometry y="30" width="140" height="30" as="geometry" />
        </mxCell>
        <mxCell id="Ah1L-h3PMF6sHmN3Qi-6-16" value="sls_cust_id" style="text;strokeColor=none;fillColor=none;align=left;verticalAlign=middle;spacingLeft=4;spacingRight=4;overflow=hidden;points=[[0,0.5],[1,0.5]];portConstraint=eastwest;rotatable=0;whiteSpace=wrap;html=1;rounded=1;" parent="Ah1L-h3PMF6sHmN3Qi-6-12" vertex="1">
          <mxGeometry y="60" width="140" height="30" as="geometry" />
        </mxCell>
        <mxCell id="Ah1L-h3PMF6sHmN3Qi-6-14" value="Transactional Records about Sales &amp;amp; Orders" style="text;html=1;align=center;verticalAlign=middle;whiteSpace=wrap;rounded=0;" parent="1" vertex="1">
          <mxGeometry x="80" y="350" width="140" height="30" as="geometry" />
        </mxCell>
        <mxCell id="Ah1L-h3PMF6sHmN3Qi-6-20" value="erp_cust_az12" style="swimlane;fontStyle=0;childLayout=stackLayout;horizontal=1;startSize=30;horizontalStack=0;resizeParent=1;resizeParentMax=0;resizeLast=0;collapsible=1;marginBottom=0;whiteSpace=wrap;html=1;rounded=1;fillColor=#f0a30a;fontColor=#000000;strokeColor=#BD7000;" parent="1" vertex="1">
          <mxGeometry x="600" y="390" width="140" height="60" as="geometry" />
        </mxCell>
        <mxCell id="Ah1L-h3PMF6sHmN3Qi-6-21" value="cid" style="text;strokeColor=none;fillColor=none;align=left;verticalAlign=middle;spacingLeft=4;spacingRight=4;overflow=hidden;points=[[0,0.5],[1,0.5]];portConstraint=eastwest;rotatable=0;whiteSpace=wrap;html=1;" parent="Ah1L-h3PMF6sHmN3Qi-6-20" vertex="1">
          <mxGeometry y="30" width="140" height="30" as="geometry" />
        </mxCell>
        <mxCell id="Ah1L-h3PMF6sHmN3Qi-6-25" value="erp_loc_a101" style="swimlane;fontStyle=0;childLayout=stackLayout;horizontal=1;startSize=30;horizontalStack=0;resizeParent=1;resizeParentMax=0;resizeLast=0;collapsible=1;marginBottom=0;whiteSpace=wrap;html=1;rounded=1;fillColor=#f0a30a;fontColor=#000000;strokeColor=#BD7000;" parent="1" vertex="1">
          <mxGeometry x="600" y="573" width="140" height="60" as="geometry" />
        </mxCell>
        <mxCell id="Ah1L-h3PMF6sHmN3Qi-6-26" value="cid" style="text;strokeColor=none;fillColor=none;align=left;verticalAlign=middle;spacingLeft=4;spacingRight=4;overflow=hidden;points=[[0,0.5],[1,0.5]];portConstraint=eastwest;rotatable=0;whiteSpace=wrap;html=1;" parent="Ah1L-h3PMF6sHmN3Qi-6-25" vertex="1">
          <mxGeometry y="30" width="140" height="30" as="geometry" />
        </mxCell>
        <mxCell id="Ah1L-h3PMF6sHmN3Qi-6-28" value="Customer DOB" style="text;html=1;align=center;verticalAlign=middle;whiteSpace=wrap;rounded=0;" parent="1" vertex="1">
          <mxGeometry x="600" y="370" width="140" height="30" as="geometry" />
        </mxCell>
        <mxCell id="Ah1L-h3PMF6sHmN3Qi-6-29" value="Customer Location" style="text;html=1;align=center;verticalAlign=middle;whiteSpace=wrap;rounded=0;" parent="1" vertex="1">
          <mxGeometry x="600" y="543" width="140" height="30" as="geometry" />
        </mxCell>
        <mxCell id="Ah1L-h3PMF6sHmN3Qi-6-30" value="erp_px_cat_g1v2" style="swimlane;fontStyle=0;childLayout=stackLayout;horizontal=1;startSize=30;horizontalStack=0;resizeParent=1;resizeParentMax=0;resizeLast=0;collapsible=1;marginBottom=0;whiteSpace=wrap;html=1;rounded=1;fillColor=#f0a30a;fontColor=#000000;strokeColor=#BD7000;" parent="1" vertex="1">
          <mxGeometry x="600" y="250" width="140" height="60" as="geometry" />
        </mxCell>
        <mxCell id="Ah1L-h3PMF6sHmN3Qi-6-31" value="id" style="text;strokeColor=none;fillColor=none;align=left;verticalAlign=middle;spacingLeft=4;spacingRight=4;overflow=hidden;points=[[0,0.5],[1,0.5]];portConstraint=eastwest;rotatable=0;whiteSpace=wrap;html=1;" parent="Ah1L-h3PMF6sHmN3Qi-6-30" vertex="1">
          <mxGeometry y="30" width="140" height="30" as="geometry" />
        </mxCell>
        <mxCell id="Ah1L-h3PMF6sHmN3Qi-6-37" value="Customer Information" style="text;html=1;align=center;verticalAlign=middle;whiteSpace=wrap;rounded=0;" parent="1" vertex="1">
          <mxGeometry x="80" y="508" width="140" height="30" as="geometry" />
        </mxCell>
        <mxCell id="Ah1L-h3PMF6sHmN3Qi-6-38" value="Extra Product Infromation(subcategory, maintenance etc)" style="text;html=1;align=center;verticalAlign=middle;whiteSpace=wrap;rounded=0;" parent="1" vertex="1">
          <mxGeometry x="600" y="200" width="140" height="50" as="geometry" />
        </mxCell>
        <mxCell id="Ah1L-h3PMF6sHmN3Qi-6-43" style="edgeStyle=orthogonalEdgeStyle;rounded=0;orthogonalLoop=1;jettySize=auto;html=1;entryX=1;entryY=0.5;entryDx=0;entryDy=0;" parent="1" source="Ah1L-h3PMF6sHmN3Qi-6-21" target="Ah1L-h3PMF6sHmN3Qi-6-23" edge="1">
          <mxGeometry relative="1" as="geometry" />
        </mxCell>
        <mxCell id="Ah1L-h3PMF6sHmN3Qi-6-45" style="edgeStyle=orthogonalEdgeStyle;rounded=0;orthogonalLoop=1;jettySize=auto;html=1;entryX=1;entryY=0.5;entryDx=0;entryDy=0;" parent="1" source="Ah1L-h3PMF6sHmN3Qi-6-26" target="Ah1L-h3PMF6sHmN3Qi-6-23" edge="1">
          <mxGeometry relative="1" as="geometry" />
        </mxCell>
        <mxCell id="Ah1L-h3PMF6sHmN3Qi-6-46" style="edgeStyle=orthogonalEdgeStyle;rounded=0;orthogonalLoop=1;jettySize=auto;html=1;entryX=1;entryY=0.5;entryDx=0;entryDy=0;" parent="1" source="Ah1L-h3PMF6sHmN3Qi-6-31" target="Ah1L-h3PMF6sHmN3Qi-6-32" edge="1">
          <mxGeometry relative="1" as="geometry" />
        </mxCell>
        <mxCell id="Ah1L-h3PMF6sHmN3Qi-6-48" style="edgeStyle=orthogonalEdgeStyle;rounded=0;orthogonalLoop=1;jettySize=auto;html=1;entryX=0;entryY=0.5;entryDx=0;entryDy=0;" parent="1" source="Ah1L-h3PMF6sHmN3Qi-6-16" target="Ah1L-h3PMF6sHmN3Qi-6-3" edge="1">
          <mxGeometry relative="1" as="geometry" />
        </mxCell>
        <mxCell id="Ah1L-h3PMF6sHmN3Qi-6-49" style="edgeStyle=orthogonalEdgeStyle;rounded=0;orthogonalLoop=1;jettySize=auto;html=1;entryX=0;entryY=0.5;entryDx=0;entryDy=0;" parent="1" source="Ah1L-h3PMF6sHmN3Qi-6-33" target="Ah1L-h3PMF6sHmN3Qi-6-32" edge="1">
          <mxGeometry relative="1" as="geometry" />
        </mxCell>
        <mxCell id="Ah1L-h3PMF6sHmN3Qi-6-50" value="" style="rounded=0;whiteSpace=wrap;html=1;fillColor=none;dashed=1;strokeColor=#66B2FF;" parent="1" vertex="1">
          <mxGeometry x="20" y="170" width="260" height="500" as="geometry" />
        </mxCell>
        <mxCell id="Ah1L-h3PMF6sHmN3Qi-6-55" value="CRM" style="text;html=1;align=center;verticalAlign=middle;whiteSpace=wrap;rounded=0;fontSize=18;fillColor=default;fontColor=#66B2FF;" parent="1" vertex="1">
          <mxGeometry x="100" y="150" width="90" height="30" as="geometry" />
        </mxCell>
        <mxCell id="Ah1L-h3PMF6sHmN3Qi-6-57" value="" style="rounded=0;whiteSpace=wrap;html=1;fillColor=none;dashed=1;strokeColor=#FFD966;" parent="1" vertex="1">
          <mxGeometry x="540" y="170" width="260" height="500" as="geometry" />
        </mxCell>
        <mxCell id="Ah1L-h3PMF6sHmN3Qi-6-58" value="ERP" style="text;html=1;align=center;verticalAlign=middle;whiteSpace=wrap;rounded=0;fontSize=18;fillColor=default;fontColor=#FFD966;" parent="1" vertex="1">
          <mxGeometry x="620" y="150" width="90" height="30" as="geometry" />
        </mxCell>
        <mxCell id="Zmkz0QTqS6MbA5bN24QP-1" value="Customer" style="text;html=1;strokeColor=#001DBC;fillColor=#0050ef;align=center;verticalAlign=middle;whiteSpace=wrap;overflow=hidden;fontColor=#000000;fontStyle=1;fontSize=11;" parent="1" vertex="1">
          <mxGeometry x="95" y="633" width="105" height="17" as="geometry" />
        </mxCell>
        <mxCell id="Zmkz0QTqS6MbA5bN24QP-3" value="&lt;div&gt;Sales&lt;/div&gt;" style="text;html=1;strokeColor=#C73500;fillColor=#fa6800;align=center;verticalAlign=middle;whiteSpace=wrap;overflow=hidden;fontColor=#000000;fontStyle=1" parent="1" vertex="1">
          <mxGeometry x="95" y="470" width="108.75" height="20" as="geometry" />
        </mxCell>
        <mxCell id="Zmkz0QTqS6MbA5bN24QP-5" value="Product" style="text;html=1;strokeColor=#2D7600;fillColor=#60a917;align=center;verticalAlign=middle;whiteSpace=wrap;overflow=hidden;fontColor=#000000;fontStyle=1" parent="1" vertex="1">
          <mxGeometry x="95" y="310" width="108.75" height="20" as="geometry" />
        </mxCell>
        <mxCell id="Zmkz0QTqS6MbA5bN24QP-6" value="Customer&lt;div&gt;&lt;br&gt;&lt;/div&gt;" style="text;html=1;strokeColor=#001DBC;fillColor=#0050ef;align=center;verticalAlign=middle;whiteSpace=wrap;overflow=hidden;fontStyle=1;fontColor=#000000;" parent="1" vertex="1">
          <mxGeometry x="620" y="450" width="100" height="17" as="geometry" />
        </mxCell>
        <mxCell id="Zmkz0QTqS6MbA5bN24QP-7" value="Customer&lt;div&gt;&lt;br&gt;&lt;/div&gt;" style="text;html=1;strokeColor=#001DBC;fillColor=#0050ef;align=center;verticalAlign=middle;whiteSpace=wrap;overflow=hidden;fontColor=#000000;fontStyle=1" parent="1" vertex="1">
          <mxGeometry x="620" y="630" width="100" height="17" as="geometry" />
        </mxCell>
        <mxCell id="Zmkz0QTqS6MbA5bN24QP-8" value="Product" style="text;html=1;strokeColor=#2D7600;fillColor=#60a917;align=center;verticalAlign=middle;whiteSpace=wrap;overflow=hidden;fontColor=#000000;fontStyle=1" parent="1" vertex="1">
          <mxGeometry x="615.63" y="310" width="108.75" height="20" as="geometry" />
        </mxCell>
      </root>
    </mxGraphModel>
  </diagram>
</mxfile>
